<?xml version="1.0" encoding="utf-8"?>
<!-- Generator: Adobe Illustrator 16.0.4, SVG Export Plug-In . SVG Version: 6.00 Build 0)  -->
<!DOCTYPE svg PUBLIC "-//W3C//DTD SVG 1.1//EN" "http://www.w3.org/Graphics/SVG/1.1/DTD/svg11.dtd">
<svg version="1.1" id="Layer_1" xmlns="http://www.w3.org/2000/svg" xmlns:xlink="http://www.w3.org/1999/xlink" x="0px" y="0px"
	 width="389px" height="170.078px" viewBox="0 0 389 170.078" enable-background="new 0 0 389 170.078" xml:space="preserve">
<g>
	<path fill="#DA2128" d="M10.102,47.384h50.537c4.949,0,8.689,1.561,10.156,8.603c1.636,7.822,0.96,13.27-7.845,13.887l-15.867,1.14
		c11.679,73.785,79.956,97.828,117.13,18.36c6.151-13.153,8.165-15.542,14.901-13.872c9.142,2.264,10.391,6.964,6.039,20.228
		C153.011,193.696,44.988,203.518,23.79,72.685l-12.892,0.936C0.414,74.37,0,65.518,0,60.6C0,50.865,3.615,47.384,10.102,47.384"/>
	<path fill="#DA2128" d="M193.845,0C204.204,0,212.6,8.399,212.6,18.759c0,10.358-8.396,18.758-18.755,18.758
		c-10.359,0-18.758-8.4-18.758-18.758C175.087,8.399,183.486,0,193.845,0"/>
</g>
<path fill="#DA2128" d="M387.29,147.061c0.378-0.315,0.654-0.671,0.828-1.065c0.172-0.394,0.26-0.985,0.26-1.774V86.319
	c0-0.788-0.088-1.388-0.26-1.798c-0.174-0.409-0.45-0.757-0.828-1.041c-0.883-0.693-2.918-1.04-6.104-1.04
	c-3.247,0-5.313,0.347-6.196,1.04c-0.378,0.284-0.654,0.632-0.828,1.041c-0.173,0.41-0.259,1.01-0.259,1.798v57.901
	c0,1.294,0.361,2.24,1.087,2.84c0.883,0.692,2.949,1.04,6.196,1.04C384.372,148.101,386.407,147.753,387.29,147.061"/>
<path fill="#DA2128" d="M344.095,147.392c3.311-1.137,6.031-2.713,8.16-4.731c2.128-2.017,3.69-4.407,4.683-7.167
	c0.993-2.759,1.49-5.763,1.49-9.011V86.318c0-1.355-0.347-2.301-1.041-2.838c-0.945-0.693-2.979-1.04-6.102-1.04
	c-3.248,0-5.314,0.347-6.197,1.04c-0.41,0.284-0.694,0.632-0.852,1.041c-0.158,0.41-0.236,1.01-0.236,1.797v39.974
	c0,1.577-0.276,3.193-0.828,4.85c-0.552,1.655-1.758,3.026-3.618,4.114c-1.862,1.089-4.322,1.633-7.38,1.633
	c-2.113,0-3.919-0.253-5.417-0.757s-2.72-1.222-3.666-2.151c-0.946-0.932-1.64-2.051-2.081-3.359
	c-0.442-1.309-0.663-2.752-0.663-4.329V86.318c0-1.355-0.347-2.301-1.04-2.838c-0.946-0.693-2.981-1.04-6.102-1.04
	c-3.249,0-5.315,0.347-6.198,1.04c-0.41,0.284-0.694,0.632-0.851,1.041c-0.158,0.41-0.237,1.01-0.237,1.797v40.164
	c0,3.248,0.497,6.252,1.49,9.011c0.994,2.76,2.555,5.15,4.684,7.167c2.129,2.019,4.849,3.595,8.16,4.731
	c3.311,1.135,7.285,1.701,11.921,1.701C336.81,149.093,340.783,148.526,344.095,147.392"/>
<path fill="#DA2128" d="M273.331,147.061c0.378-0.315,0.646-0.671,0.804-1.065c0.157-0.394,0.237-0.985,0.237-1.774V94.834H288.8
	c1.072,0,1.939-0.103,2.601-0.308c0.663-0.204,1.183-0.654,1.562-1.349c0.44-0.852,0.78-2.033,1.016-3.548
	c0.237-1.514,0.355-2.728,0.355-3.643c0-0.757-0.063-1.332-0.189-1.727c-0.126-0.393-0.378-0.716-0.757-0.969
	c-0.253-0.157-0.599-0.275-1.04-0.355c-0.443-0.078-1.073-0.118-1.893-0.118h-44.94c-1.072,0-1.939,0.103-2.602,0.307
	c-0.661,0.206-1.182,0.655-1.56,1.349c-0.443,0.789-0.781,1.829-1.018,3.122c-0.236,1.294-0.355,2.635-0.355,4.021
	c0,0.789,0.063,1.38,0.19,1.774c0.126,0.395,0.394,0.717,0.804,0.97c0.504,0.314,1.467,0.473,2.886,0.473h16.083v49.387
	c0,1.356,0.363,2.304,1.089,2.84c0.882,0.692,2.948,1.04,6.197,1.04C270.351,148.101,272.384,147.753,273.331,147.061"/>
</svg>
